<mxfile host="app.diagrams.net" modified="2021-06-07T04:01:29.159Z" agent="5.0 (Macintosh; Intel Mac OS X 10_13_6) AppleWebKit/605.1.15 (KHTML, like Gecko) Version/13.1.2 Safari/605.1.15" etag="aCK9giZiIQroDATtDEHB" version="14.7.6" type="github">
  <diagram id="r_O3mc9fwZs_SgBFgXvZ" name="Page-1">
    <mxGraphModel dx="1249" dy="869" grid="1" gridSize="10" guides="1" tooltips="1" connect="1" arrows="1" fold="1" page="1" pageScale="1" pageWidth="827" pageHeight="1169" math="0" shadow="0">
      <root>
        <mxCell id="0" />
        <mxCell id="1" parent="0" />
        <mxCell id="1OgtQADeWf0r_xnJAIt3-12" value="" style="edgeStyle=orthogonalEdgeStyle;rounded=0;orthogonalLoop=1;jettySize=auto;html=1;" edge="1" parent="1" source="1OgtQADeWf0r_xnJAIt3-1" target="1OgtQADeWf0r_xnJAIt3-2">
          <mxGeometry relative="1" as="geometry" />
        </mxCell>
        <mxCell id="1OgtQADeWf0r_xnJAIt3-13" style="edgeStyle=orthogonalEdgeStyle;rounded=0;orthogonalLoop=1;jettySize=auto;html=1;" edge="1" parent="1" source="1OgtQADeWf0r_xnJAIt3-1" target="1OgtQADeWf0r_xnJAIt3-3">
          <mxGeometry relative="1" as="geometry" />
        </mxCell>
        <mxCell id="1OgtQADeWf0r_xnJAIt3-14" style="edgeStyle=orthogonalEdgeStyle;rounded=0;orthogonalLoop=1;jettySize=auto;html=1;" edge="1" parent="1" source="1OgtQADeWf0r_xnJAIt3-1" target="1OgtQADeWf0r_xnJAIt3-4">
          <mxGeometry relative="1" as="geometry" />
        </mxCell>
        <mxCell id="1OgtQADeWf0r_xnJAIt3-1" value="JavaScript" style="rounded=0;whiteSpace=wrap;html=1;" vertex="1" parent="1">
          <mxGeometry x="310" y="60" width="230" height="60" as="geometry" />
        </mxCell>
        <mxCell id="1OgtQADeWf0r_xnJAIt3-2" value="Document Object Model" style="rounded=0;whiteSpace=wrap;html=1;" vertex="1" parent="1">
          <mxGeometry x="365" y="240" width="120" height="60" as="geometry" />
        </mxCell>
        <mxCell id="1OgtQADeWf0r_xnJAIt3-3" value="Browser Object Model" style="rounded=0;whiteSpace=wrap;html=1;" vertex="1" parent="1">
          <mxGeometry x="160" y="240" width="120" height="60" as="geometry" />
        </mxCell>
        <mxCell id="1OgtQADeWf0r_xnJAIt3-6" value="" style="edgeStyle=orthogonalEdgeStyle;rounded=0;orthogonalLoop=1;jettySize=auto;html=1;exitX=0.25;exitY=1;exitDx=0;exitDy=0;" edge="1" parent="1" source="1OgtQADeWf0r_xnJAIt3-4" target="1OgtQADeWf0r_xnJAIt3-5">
          <mxGeometry relative="1" as="geometry" />
        </mxCell>
        <mxCell id="1OgtQADeWf0r_xnJAIt3-8" style="edgeStyle=orthogonalEdgeStyle;rounded=0;orthogonalLoop=1;jettySize=auto;html=1;exitX=0.75;exitY=1;exitDx=0;exitDy=0;" edge="1" parent="1" source="1OgtQADeWf0r_xnJAIt3-4" target="1OgtQADeWf0r_xnJAIt3-7">
          <mxGeometry relative="1" as="geometry" />
        </mxCell>
        <mxCell id="1OgtQADeWf0r_xnJAIt3-4" value="ECMAScript" style="rounded=0;whiteSpace=wrap;html=1;" vertex="1" parent="1">
          <mxGeometry x="580" y="240" width="120" height="60" as="geometry" />
        </mxCell>
        <mxCell id="1OgtQADeWf0r_xnJAIt3-5" value="ECMAScript 2014&lt;br&gt;(ES5)" style="rounded=0;whiteSpace=wrap;html=1;" vertex="1" parent="1">
          <mxGeometry x="480" y="390" width="120" height="60" as="geometry" />
        </mxCell>
        <mxCell id="1OgtQADeWf0r_xnJAIt3-10" value="" style="edgeStyle=orthogonalEdgeStyle;rounded=0;orthogonalLoop=1;jettySize=auto;html=1;" edge="1" parent="1" source="1OgtQADeWf0r_xnJAIt3-7" target="1OgtQADeWf0r_xnJAIt3-9">
          <mxGeometry relative="1" as="geometry" />
        </mxCell>
        <mxCell id="1OgtQADeWf0r_xnJAIt3-7" value="ECMAScript 2015&lt;br&gt;(ES6)" style="rounded=0;whiteSpace=wrap;html=1;" vertex="1" parent="1">
          <mxGeometry x="610" y="390" width="120" height="60" as="geometry" />
        </mxCell>
        <mxCell id="1OgtQADeWf0r_xnJAIt3-9" value="...ECMAScript 2020&lt;br&gt;...(ES11)" style="rounded=0;whiteSpace=wrap;html=1;" vertex="1" parent="1">
          <mxGeometry x="770" y="390" width="120" height="60" as="geometry" />
        </mxCell>
      </root>
    </mxGraphModel>
  </diagram>
</mxfile>
